<?xml version="1.0" standalone="no"?>
<!DOCTYPE svg PUBLIC "-//W3C//DTD SVG 20010904//EN"
 "http://www.w3.org/TR/2001/REC-SVG-20010904/DTD/svg10.dtd">
<svg version="1.0" xmlns="http://www.w3.org/2000/svg"
 width="188.000000pt" height="210.000000pt" viewBox="0 0 188.000000 210.000000"
 preserveAspectRatio="xMidYMid meet">

<g transform="translate(0.000000,210.000000) scale(0.100000,-0.100000)"
fill="#000000" stroke="none">
<path d="M1483 2082 c-71 -25 -124 -64 -153 -112 -14 -22 -29 -38 -35 -35
-149 62 -237 84 -349 85 -83 0 -256 -27 -341 -54 l-71 -23 -38 33 c-51 44
-125 68 -207 67 -260 -4 -387 -311 -200 -486 26 -24 57 -48 70 -52 14 -4 20
-12 17 -23 -21 -72 -28 -156 -23 -265 3 -67 9 -132 12 -144 6 -19 2 -23 -34
-33 -22 -6 -45 -19 -51 -30 -14 -27 -12 -66 4 -80 8 -6 12 -18 9 -26 -10 -26
7 -65 35 -77 15 -6 39 -24 53 -39 20 -20 35 -27 61 -26 47 2 54 -4 148 -112
88 -102 163 -204 235 -321 39 -63 45 -81 45 -127 0 -84 35 -133 122 -172 74
-32 162 -37 244 -12 144 44 210 152 155 252 l-19 35 50 94 c53 100 104 180
175 273 24 32 63 89 86 126 36 58 46 68 62 61 35 -13 64 -10 85 11 11 11 25
20 30 20 17 0 50 39 50 60 0 11 9 29 20 40 23 23 25 51 8 83 -6 12 -11 36 -9
52 3 37 -23 64 -63 67 -28 3 -28 3 -23 57 3 29 1 92 -5 140 -17 139 -19 131
33 148 199 64 271 305 139 465 -68 82 -218 119 -327 80z m-323 -160 c36 -12
90 -36 120 -54 l55 -33 9 -83 c5 -45 12 -82 16 -82 4 0 15 9 25 20 35 38 42
23 20 -46 -6 -18 -3 -20 31 -16 39 5 40 -1 6 -40 -13 -16 -13 -18 -1 -18 8 0
20 5 26 11 5 5 22 7 36 4 20 -5 29 -18 41 -53 36 -113 45 -243 25 -359 -6 -35
-9 -66 -6 -69 2 -3 26 3 52 11 26 9 49 15 51 12 2 -2 -7 -16 -21 -31 -14 -15
-25 -29 -25 -31 0 -1 14 -8 31 -14 33 -11 31 -31 -4 -31 -39 0 -50 -14 -27
-35 30 -27 25 -38 -16 -31 -33 7 -35 6 -24 -13 9 -18 8 -21 -7 -21 -10 0 -32
8 -49 19 l-30 18 -38 -74 c-21 -41 -81 -131 -132 -201 -55 -74 -122 -181 -161
-257 l-67 -131 24 -32 c47 -64 22 -128 -67 -169 -48 -22 -65 -25 -138 -21 -69
4 -90 9 -123 30 -48 33 -70 79 -55 119 10 25 5 38 -51 132 -74 123 -151 229
-244 335 -37 42 -81 94 -97 116 -16 21 -31 33 -33 27 -7 -22 -24 -10 -20 14
l5 24 -29 -20 c-35 -26 -46 -18 -31 22 10 26 10 29 -5 25 -77 -23 -95 -14 -45
22 l26 19 -36 12 c-42 14 -49 31 -13 31 12 0 37 5 55 11 24 8 31 16 26 28 -34
89 -40 313 -11 433 l19 76 81 4 c45 3 85 1 91 -4 5 -4 16 -8 24 -8 11 0 8 7
-8 24 -29 31 -21 47 19 36 17 -5 30 -7 30 -6 0 2 -7 20 -15 39 -8 20 -15 39
-15 42 0 13 29 3 46 -16 17 -19 18 -19 24 -2 11 33 11 158 0 188 -13 35 -4 45
77 75 95 35 198 49 348 46 109 -2 154 -8 205 -24z"/>
<path d="M1291 1416 c-29 -31 -19 -56 11 -29 20 17 20 16 -1 -25 l-22 -44 45
27 c25 15 53 25 62 23 14 -3 13 -8 -10 -34 -29 -35 -33 -54 -12 -54 20 0 66
65 66 93 0 27 -22 41 -50 32 -12 -4 -19 1 -23 15 -7 27 -38 25 -66 -4z"/>
<path d="M537 1383 c-4 -3 -7 -15 -7 -25 0 -12 -7 -18 -24 -18 -28 0 -35 -15
-26 -50 7 -29 37 -35 32 -7 -3 15 0 17 16 8 22 -12 32 1 32 42 1 19 5 18 34
-16 26 -29 36 -34 44 -24 8 9 2 23 -25 55 -32 39 -60 52 -76 35z"/>
<path d="M1239 1067 c-106 -71 -60 -217 68 -217 124 0 155 167 43 225 -40 21
-72 19 -111 -8z m44 -49 c8 -12 7 -21 -2 -32 -19 -22 -48 -20 -61 5 -23 41 38
68 63 27z"/>
<path d="M529 1065 c-15 -8 -34 -31 -44 -51 -48 -101 58 -207 159 -159 44 21
66 59 66 116 0 33 -6 47 -34 75 -28 28 -41 34 -77 34 -24 -1 -56 -7 -70 -15z
m129 -27 c17 -17 15 -43 -4 -59 -31 -26 -70 25 -44 56 15 18 32 19 48 3z"/>
<path d="M1066 262 c-4 -7 -10 -35 -13 -64 -6 -48 -5 -52 10 -39 21 16 32 74
19 96 -6 12 -12 14 -16 7z"/>
<path d="M810 216 c0 -23 9 -45 25 -63 22 -25 24 -26 24 -8 1 21 -34 105 -44
105 -3 0 -5 -15 -5 -34z"/>
</g>
</svg>
